<?xml version="1.0" encoding="UTF-8"?><svg id="a" xmlns="http://www.w3.org/2000/svg" viewBox="0 0 80 52"><path d="m67.2945,49.615v-.171c.219-.016.383-.032.383-.207,0-.063-.016-.133-.035-.188l-.094-.328h-1.125l-.098.277c-.019.067-.039.129-.039.196,0,.226.239.242.434.25v.171h-1.313v-.171c.333-.016.442-.082.563-.414l.859-2.36-.046-.078c.367-.121.472-.176.628-.293.063.215.071.242.141.469l.707,2.16c.125.383.184.477.52.512v.175h-1.485Zm-.285-2.55l-.465,1.316h.914l-.449-1.316Zm-11.07,1.843c-.141.227-.477.793-1.356.793-.957,0-1.578-.707-1.578-1.636,0-.86.528-1.707,1.602-1.707.566,0,.863.238,1.047.382l.218-.199.016.961-.141.031c-.054-.187-.136-.335-.343-.558-.098-.106-.332-.313-.664-.313-.575,0-1.028.469-1.028,1.293,0,.7.371,1.356,1.106,1.356.558,0,.769-.3091.933-.547l.188.144Zm.539.707v-.171c.359-.032.363-.11.363-.414.004-.114.004-.227.004-.34v-1.332c0-.207,0-.414-.016-.512-.015-.191-.105-.219-.355-.238v-.172h1.363v.172c-.265.023-.363.035-.394.207-.024.105-.032.34-.032.531v.437c.278.016.469.02.735.02.269,0,.484-.008.754-.02v-.535c-.004-.578-.008-.601-.442-.64v-.172h1.379v.172c-.367.043-.367.047-.367.652v1.34c0,.125.004.527.016.621.023.168.117.199.351.223v.171h-1.379v-.171c.321-.036.407-.047.434-.266.008-.094.008-.211.008-.441v-.586c-.25-.008-.461-.02-.723-.02-.273,0-.488.008-.766.02v.586c.008.66.016.66.426.703v.175h-1.359Zm3.922,0v-.171c.312-.043.375-.079.379-.411v-1.695c-.004-.66-.004-.68-.379-.73v-.172h1.32v.172c-.371.035-.371.05-.371.73v1.285c0,.114.004.469.012.563.023.195.113.238.359.258v.171h-1.32Zm-9.055,0v-.171c.309-.043.371-.079.375-.411v-1.695c-.004-.66-.004-.68-.375-.73v-.172h1.316v.172c-.375.035-.375.05-.375.73v1.285c0,.114.008.469.016.563.023.195.113.238.359.258v.171h-1.316Zm-2.008,0v-.171c.403-.028.403-.047.41-.633v-1.602l-1.113,2.446h-.281l-1.02-2.481-.023,1.871c0,.313.035.371.371.395v.175h-1.102v-.175c.258-.012.356-.047.371-.262.012-.086.024-.356.032-.531l.043-1.328c.004-.106.004-.258.004-.371,0-.317-.063-.34-.344-.34v-.172h.996l.992,2.41,1.09-2.41h.969v.187c-.379.024-.383.063-.379.559v1.308c0,.219.004.489.015.653.02.23.11.273.364.297v.172h-1.395v.003Zm19.649,0v-.171c.261-.016.363-.02.398-.2.043-.211.059-2.097.063-2.429-.176-.16-.247-.192-.461-.207v-.172h.957c.265.379.324.461.789,1.043l.89,1.101v-1.425c-.004-.504-.019-.532-.523-.547v-.172h1.254v.172c-.348.004-.375.074-.383.593l-.043,2.454h-.191l-.286-.356c-.144-.18-.289-.359-.433-.535l-1.254-1.551v1.649c0,.511.035.531.52.578v.175h-1.297Zm-26.524-1.593c0,1.097-.75,1.672-1.594,1.672-.921,0-1.644-.668-1.644-1.68,0-.867.582-1.652,1.601-1.649.965.004,1.637.692,1.637,1.657h0Zm-1.59,1.379c.184-.004.438-.09.633-.395.223-.344.27-.656.258-1.074-.012-.41-.129-.762-.363-1.012-.102-.109-.301-.265-.567-.262-.265,0-.461.168-.562.282-.227.254-.328.609-.328,1.019,0,.414.054.731.289,1.067.207.296.461.375.64.375h0Zm1.911.039v.175h1.316v-.175c-.328-.032-.371-.067-.379-.41v-.911h.355c.356,0,.543.036.563.391h.156v-1.051h-.156c-.016.344-.109.379-.496.379h-.422v-1.101c.113-.016.176-.016.379-.016.625,0,.82-.004.91.492h.156l-.05-.777h-2.332v.172c.226.019.328.035.359.183.023.098.027.449.027.578v1.118c0,.082-.008.468-.012.543-.007.343-.046.378-.374.41h0Zm-27.333.152v-.172c.313-.039.375-.074.379-.41v-1.691c-.004-.664-.004-.684-.379-.735v-.172h1.321v.172c-.371.035-.371.051-.371.735v1.281c0,.113,0,.469.015.562.02.196.11.239.356.258v.172h-1.321Zm14.008,0v-.172c.309-.039.375-.074.379-.41v-1.691c-.004-.664-.004-.684-.379-.735v-.172h1.321v.172c-.375.035-.375.051-.375.735v1.281c0,.113.003.469.015.562.02.196.11.239.36.258v.172h-1.321Zm-17.879,0v-.172c.266-.012.36-.019.399-.199.043-.211.055-2.098.058-2.426-.171-.164-.246-.191-.457-.211v-.172h.954c.265.379.328.465.792,1.047l.891,1.098v-1.422c-.008-.508-.019-.531-.527-.551v-.172h1.254v.172c-.344.004-.375.078-.379.594l-.047,2.457h-.192l-.281-.359c-.144-.18-.289-.36-.433-.536l-1.258-1.55v1.648c0,.512.039.531.523.578v.176h-1.297Zm15.25-.992l.164-.016c.176.516.469.797.946.797.336,0,.633-.144.633-.484,0-.364-.344-.504-.5-.571-.125-.046-.258-.089-.387-.14-.258-.094-.75-.297-.75-.914,0-.594.469-.926,1.012-.926.214,0,.46.039.73.215l.195-.141.102.945-.156.032c-.055-.207-.098-.301-.223-.473-.152-.195-.363-.289-.621-.289-.336,0-.535.164-.535.414,0,.379.375.508.73.625.18.059.328.109.457.184.254.148.461.429.461.808,0,.551-.453,1.004-1.121,1.004-.433,0-.699-.172-.824-.25l-.262-.191-.051-.629Zm5.227.992v-.137c.293-.007.375-.109.375-.363v-2.344h-.395c-.359,0-.597-.011-.625.555h-.168l.028-.891h2.886l.028.891h-.168c-.027-.566-.266-.555-.621-.555h-.399v2.344c0,.254.082.359.371.363v.137h-1.312Zm-22.91-3.18v.172c-.422.028-.422.043-.426.723v.746c0,.387.008.719.211,1.016.164.238.437.265.578.265.457,0,.707-.234.816-.609.09-.297.094-.856.094-1.2231,0-.117,0-.496-.004-.597-.019-.293-.168-.297-.453-.325v-.172h1.211v.172c-.297-.004-.359.067-.379.383-.004.074-.039.957-.043,1.094-.008.242-.023.48-.078.711-.215.855-1.047.898-1.269.898-.176,0-.536-.027-.832-.226-.473-.317-.477-.797-.477-1.309v-.719c-.004-.343-.004-.5-.016-.578-.027-.199-.125-.238-.363-.25v-.172h1.43Zm11.273,0v.172c-.304.043-.347.129-.609.762l-.969,2.309h-.172l-.867-2.344c-.215-.606-.242-.68-.562-.727v-.172h1.507v.172c-.257.008-.422.016-.422.199,0,.094.024.168.106.438l.559,1.613.644-1.672c.043-.113.098-.254.098-.336,0-.23-.227-.238-.426-.242v-.172h1.113Zm15.071,3.18v-.172c.25-.027.347-.035.41-.098.07-.07.07-.152.074-.5v-.558l-.844-1.313c-.23-.343-.234-.351-.539-.367v-.176h1.652v.176c-.332.008-.48.016-.48.168,0,.09.059.188.141.32l.484.797.449-.793c.082-.156.129-.25.129-.324,0-.152-.133-.156-.355-.172v-.175h1.242v.175c-.32.012-.414.106-.774.7l-.5.828v.664c0,.578.004.621.477.648v.172h-1.566Zm-12.348,0c0-.23.039-.609.066-.824h-.152c-.109.57-.426.543-.887.543-.426,0-.508-.117-.508-.324v-.887h.344c.391,0,.5.031.5.387h.156v-1.047h-.156c-.031.281-.086.375-.5.375h-.344v-1.121h.391c.539,0,.734.043.805.472h.144l-.015-.754h-2.266v.172c.227.024.328.035.359.184.024.097.024.449.024.574v1.117c0,.086,0,.469-.008.547-.008.344-.047.379-.375.41v.176h2.422Zm42.109-1.383v.172c-.289.016-.289.098-.301.703v.238c-.242.153-.593.372-1.222.372-1.09,0-1.613-.829-1.613-1.661,0-1.019.687-1.683,1.55-1.683.543,0,.856.207,1.118.363l.164-.187.023.992-.129.023c-.066-.187-.164-.406-.402-.648-.106-.102-.309-.235-.629-.235-.555,0-1.016.469-1.016,1.383,0,.731.36,1.36.977,1.36.359,0,.539-.25.554-.27.059-.082.071-.16.067-.297-.016-.406-.07-.418-.422-.453v-.172h1.281Zm-40.633-.324c.086.02.207.031.297.031.364.004.637-.281.649-.535.019-.367-.164-.687-.75-.687-.082,0-.133.004-.196.015v1.176Zm0,.695c.004.731.004.828.387.836v.176h-1.328v-.176c.344-.027.379-.082.387-.426.004-.128.004-.277.004-.406v-1.152c0-.383-.008-.516-.02-.621-.023-.176-.109-.207-.371-.227v-.172l1.441.004c.7859,0,1.036.371,1.036.817,0,.304-.192.703-.629.839l.562.977c.203.375.313.461.57.496v.11c-.07.003-.136.007-.21.007-.598,0-.844-.207-1.094-.742l-.18-.371c-.187-.402-.25-.383-.551-.383v.414h-.004Zm0,0" style="fill:#fff;"/><path d="m40.0365,27.5805l-8.734-11.938v8.684h3.473v8.578h-16.067v-8.578h3.262v-13.348h-3.262V2.4045h12.621l8.707,12.023,8.707-12.023h12.614v8.574h-3.258v13.348h3.258v8.578h-16.063v-8.578h3.473v-8.684l-8.731,11.938Zm0,0" style="fill:#ffcb05;"/><path d="m12.1075,43.3385v-4.719l-1.196,4.719h-1.218l-1.137-4.719v4.719h-1.211v-6.118h2.027l.965,4.161,1.024-4.161h1.992v6.118h-1.246Zm0,0" style="fill:#fff;"/><rect x="14.4315" y="37.2205" width="1.277" height="6.117" style="fill:#fff;"/><path d="m20.6695,41.4595c0,1.297-.636,1.949-1.906,1.949-.492,0-.875-.082-1.145-.246-.273-.164-.48-.391-.621-.68-.14-.289-.222-.621-.246-1-.019-.379-.035-.777-.043-1.195,0-.43.016-.836.043-1.219.032-.387.114-.723.246-1.008.137-.289.344-.515.629-.679.281-.165.68-.25,1.196-.254,1.183,0,1.777.605,1.777,1.812v.211h-1.254v-.133c0-.64-.203-.957-.609-.957-.18,0-.321.055-.414.168-.098.114-.172.27-.223.473-.051.203-.082.449-.094.73-.008.282-.015.598-.015.95,0,.304.007.585.015.839.012.254.043.477.086.668.047.192.121.336.231.434.105.094.246.148.421.16.161,0,.282-.039.364-.117.086-.082.152-.184.195-.305.047-.125.074-.258.086-.398.012-.145.016-.27.016-.383h1.265v.18Zm0,0" style="fill:#fff;"/><path d="m24.2795,43.3385v-2.696h-1.45v2.696h-1.289v-6.118h1.289v2.422h1.45v-2.422h1.289v6.118h-1.289Zm0,0" style="fill:#fff;"/><rect x="26.6775" y="37.2205" width="1.281" height="6.117" style="fill:#fff;"/><path d="m32.6425,43.2795c-.215.039-.434.07-.66.094-.227.023-.449.035-.668.043-.203,0-.41-.016-.621-.043-.207-.028-.41-.082-.602-.16-.191-.082-.359-.184-.508-.317-.148-.129-.265-.304-.355-.523-.047-.125-.086-.254-.117-.391-.036-.137-.063-.289-.078-.457-.016-.172-.032-.363-.043-.578-.012-.215-.016-.465-.016-.754,0-.406.016-.797.051-1.168.035-.375.125-.707.269-1,.149-.293.367-.527.653-.695.289-.168.683-.258,1.187-.262.633,0,1.121.156,1.457.473.34.316.512.769.52,1.355v.164h-1.274v-.297c0-.246-.066-.437-.203-.578-.137-.14-.309-.211-.523-.211-.2,0-.356.055-.469.16-.113.11-.195.254-.254.442-.055.187-.09.406-.102.66-.011.254-.015.531-.015.832v.262c0,.328.004.625.015.89.012.266.047.493.102.688.059.191.152.336.281.437.129.102.305.157.524.164.226,0,.445-.043.652-.121v-1.347h-.703v-.949h1.969v3.101l-.469.086Zm0,0" style="fill:#fff;"/><path d="m37.4395,43.3385l-.336-1.356h-1.746l-.348,1.356h-1.266l1.696-6.118h1.687l1.66,6.118h-1.347Zm-1.235-4.942l-.601,2.664h1.234l-.633-2.664Zm0,0" style="fill:#fff;"/><path d="m42.2715,43.3385l-1.68-4.473v4.473h-1.184v-6.118h1.719l1.637,4.239v-4.239h1.187v6.118h-1.679Zm0,0" style="fill:#fff;"/><path d="m51.1035,40.2365c0,.453-.012.875-.035,1.262-.024.39-.106.734-.246,1.027-.141.293-.356.52-.645.676-.289.16-.695.242-1.227.246-.5,0-.886-.086-1.164-.262-.273-.176-.484-.41-.625-.703-.14-.293-.226-.64-.254-1.043-.027-.402-.046-.816-.05-1.246,0-.422.015-.824.05-1.203.032-.379.126-.711.27-1,.148-.289.359-.512.637-.676.277-.164.66-.25,1.152-.258.52,0,.922.082,1.211.239.289.16.5.382.637.671.136.286.219.622.246,1,.027.379.043.801.043,1.27h0Zm-1.305-.094c0-.328-.004-.625-.012-.89-.003-.266-.031-.489-.082-.676-.05-.188-.132-.332-.238-.442-.109-.105-.269-.16-.484-.16-.203,0-.36.047-.465.145-.11.094-.188.246-.246.449-.055.203-.086.457-.094.762-.004.304-.012.664-.016,1.074,0,.348.004.652.016.918.012.266.047.488.109.668.063.18.145.316.239.406.097.09.242.141.441.145.203,0,.363-.047.473-.145.113-.094.195-.246.246-.449.051-.203.082-.449.094-.746.011-.293.019-.645.019-1.059h0Zm0,0" style="fill:#fff;"/><path d="m54.9825,43.3385l-1.676-4.473v4.473h-1.188v-6.118h1.719l1.637,4.239v-4.239h1.187v6.118h-1.679Zm0,0" style="fill:#fff;"/><path d="m57.7555,43.3385v-6.118h1.297v5.102h1.898v1.016h-3.195Zm0,0" style="fill:#fff;"/><rect x="61.5175" y="37.2205" width="1.281" height="6.117" style="fill:#fff;"/><path d="m66.7555,43.3385l-1.68-4.473v4.473h-1.183v-6.118h1.719l1.636,4.239v-4.239h1.188v6.118h-1.68Zm0,0" style="fill:#fff;"/><path d="m69.5255,43.3385v-6.118h3.34v.942h-2.059v1.508h1.898v.941h-1.898v1.77h2.129v.957h-3.41Zm0,0" style="fill:#fff;"/></svg>