<?xml version="1.0" encoding="UTF-8"?><svg id="a" xmlns="http://www.w3.org/2000/svg" viewBox="0 0 220 30"><path d="m49.814,1.1601h.403v27.722h-.403V1.1601Z" style="fill:#00274c;"/><path d="m22.635,24.0461l-7.942-10.85v7.894h3.157v7.793H3.248v-7.793h2.961v-12.137h-2.961V1.1601h11.473l7.914,10.929L30.553,1.1601h11.465v7.793h-2.958v12.136h2.958v7.793h-14.598v-7.793h3.152v-7.893s-7.937,10.85-7.937,10.85Z" style="fill:#ffcb05;"/><path d="m69.221,28.8821V3.1961l-2.996,25.687h-3.149l-2.883-25.687v25.687h-2.3V1.1601h3.953l2.843,24.73,2.957-24.73h3.875v27.722h-2.3Zm5.949,0V1.1601h2.535v27.722h-2.535Zm14.324-3.761c0,1.125-.308,2.074-.922,2.839-.613.771-1.636,1.153-3.07,1.153-.77,0-1.395-.103-1.883-.305-.4644-.1909-.8738-.4947-1.191-.884-.2939-.3644-.5155-.7815-.653-1.229-.129-.434-.191-.935-.191-1.496V4.5391c0-.461.078-.911.23-1.344.153-.438.383-.821.692-1.153.3391-.355.7435-.6412,1.191-.843.485-.231,1.074-.336,1.766-.309.742,0,1.371.102,1.883.309.511.203.922.496,1.226.882.309.383.539.817.692,1.305.152.485.23,1.012.23,1.574v3.418h-2.535v-3.456c0-.484-.063-.933-.191-1.343-.129-.411-.512-.625-1.153-.653-.332,0-.59.063-.765.192-.18.129-.336.297-.461.5-.134.2195-.2021.4729-.196.73,0,.281-.023.535-.074.766v20.199c0,1.18.434,1.766,1.305,1.766,1.023,0,1.535-.641,1.535-1.918v-3.879h2.535v3.839h0Zm9.063,3.761v-13.284h-3.688v13.284h-2.531V1.1601h2.531v12.25h3.688V1.1601h2.535v27.722h-2.535Zm6.527,0V1.1601h2.535v27.722h-2.535Zm15.324-.651c-.641.207-1.281.397-1.922.578-.641.18-1.332.28-2.074.305-1.688,0-2.906-.383-3.648-1.153-.742-.765-1.113-1.894-1.113-3.379V5.2691c0-1.434.371-2.523,1.113-3.266.742-.742,1.844-1.113,3.305-1.113.793,0,1.457.102,1.996.309.5033.1814.9616.4689,1.344.843.359.36.613.77.77,1.227.152.461.23.949.23,1.461v3.648h-2.535v-2.764c0-1.766-.59-2.649-1.766-2.649-.41,0-.746.075-1,.231-.2482.1438-.449.3568-.578.613-.125.258-.215.551-.266.883-.051.332-.078.668-.078,1v18.586c0,1.867.742,2.801,2.227,2.801.438,0,.922-.125,1.461-.383v-9.293h-2.035v-2.113h4.57v12.941s-.001,0-.001,0Zm11.594.651l-1.074-7.718h-4.492l-1,7.718h-2.531l4.145-27.722h3.496l3.992,27.722h-2.536Zm-3.223-25.804l-2.074,15.977h3.953s-1.879-15.977-1.879-15.977Zm13.668,25.804l-3.262-24.613v24.613h-2.191V1.1601h3.648l3.188,23.652V1.1601h2.227v27.722h-3.61Zm21.582-3.801c0,1.411-.422,2.435-1.27,3.075-.844.636-1.891.957-3.148.957-1.434,0-2.52-.383-3.262-1.153-.742-.765-1.129-1.894-1.152-3.379V5.5351c0-1.61.344-2.789,1.035-3.532.691-.742,1.82-1.113,3.379-1.113,2.945,0,4.418,1.574,4.418,4.723v19.468h0Zm-2.535-19.237c0-.996-.141-1.726-.422-2.187s-.754-.703-1.422-.731c-.41,0-.73.078-.961.231-.23.152-.422.371-.574.652-.151.2753-.2554.5736-.309.883-.0519.3308-.0767.6652-.074,1v18.89c0,1.614.586,2.422,1.766,2.422,1.332,0,1.996-.882,1.996-2.651V5.8441Zm11.867,23.038l-3.266-24.613v24.613h-2.188V1.1601h3.648l3.188,23.652V1.1601h2.227v27.722h-3.609Zm7.524,0V1.1601h2.535v25.536h4.148v2.187h-6.683v-.001Zm9.832,0V1.1601h2.535v27.722h-2.535Zm11.828,0l-3.266-24.613v24.613h-2.188V1.1601h3.648l3.188,23.652V1.1601h2.227v27.722h-3.609Zm7.449,0V1.1601h6.719v2.187h-4.184v10.063h3.992v2.188h-3.992v11.098h4.223v2.187h-6.758v-.001Z" style="fill:#00274c;"/></svg>